<?xml version="1.0"?><svg width="640" height="480" xmlns="http://www.w3.org/2000/svg">
 <title>Call Logo</title>
 <g>
  <metadata id="CorelCorpID_0Corel-Layer"/>
  <g transform="rotate(17.1701 163.352 221.385)" id="_152222920">
   <path id="_152222248" class="fil0" d="m122.236465,163.340576c-45.550835,26.298477 23.9496,156.593475 73.794632,127.815552c8.851669,15.331665 37.363327,64.715393 46.21489,80.046661c-21.030533,12.142273 -38.831818,19.796722 -63.213852,5.858765c-67.696983,-38.699249 -142.213692,-167.719086 -140.093605,-244.673523c0.73629,-26.728828 16.483944,-37.201721 37.082558,-49.094269c8.851662,15.331192 37.363304,64.714905 46.214867,80.046646l0.000511,0.000168z"/>
   <path id="_150519168" class="fil0" d="m141.343979,161.16951c-4.921677,2.84166 -11.255249,1.145477 -14.097412,-3.776688l-43.568336,-75.462944c-2.842171,-4.922768 -1.146034,-11.255753 3.776154,-14.097923l22.898506,-13.220207c4.922195,-2.842163 11.256752,-1.144501 14.098427,3.777683l43.568352,75.462437c2.84166,4.921768 1.145004,11.255234 -3.776672,14.096939l-22.899017,13.220703z"/>
   <path id="_226148072" class="fil0" d="m260.368896,367.327759c-4.921692,2.841705 -11.255295,1.145477 -14.097427,-3.777222l-43.568344,-75.462891c-2.842163,-4.922302 -1.145996,-11.255798 3.776154,-14.097443l22.898514,-13.220673c4.92218,-2.841705 11.256775,-1.144043 14.098419,3.777679l43.568344,75.462433c2.841644,4.922241 1.14502,11.255737 -3.776672,14.097412l-22.898987,13.220703z"/>
  </g>
  <title>Layer 1</title>
  <text transform="matrix(8.6156 0 0 8.6156 -1225.81 -1427.39)" xml:space="preserve" text-anchor="middle" font-family="Arial Black" font-size="24" id="svg_1" y="197.87367" x="185.136834" stroke-width="0" stroke="#000000" fill="#000000">ALL</text>
 </g>
</svg>